<svg width="204" height="204" viewBox="0 0 204 204" fill="none" xmlns="http://www.w3.org/2000/svg">
<path d="M105 187.531C105 188.984 104.646 190.097 103.937 190.869C103.229 191.623 102.23 192 100.939 192H92.0611C90.7704 192 89.7708 191.623 89.0625 190.869C88.3542 190.097 88 188.984 88 187.531C88 186.078 88.3542 184.975 89.0625 184.221C89.7708 183.449 90.7704 183.063 92.0611 183.063H93.8083V185.931H91.8958C90.8727 185.931 90.3611 186.437 90.3611 187.449C90.3611 188.46 90.8727 188.966 91.8958 188.966H101.128C102.135 188.966 102.639 188.46 102.639 187.449C102.639 186.437 102.135 185.931 101.128 185.931H98.6014V183.063H100.939C102.23 183.063 103.229 183.449 103.937 184.221C104.646 184.975 105 186.078 105 187.531ZM88.2361 178.903V174.793L104.764 171.648V174.682L101.482 175.234H101.529V178.682L104.764 179.234V182.047L88.2361 178.903ZM99.2861 175.593L91.1167 176.944V176.999L99.2861 178.323V175.593ZM105 165.954C105 167.407 104.646 168.519 103.937 169.292C103.229 170.046 102.23 170.423 100.939 170.423H92.0611C90.7704 170.423 89.7708 170.046 89.0625 169.292C88.3542 168.519 88 167.407 88 165.954C88 164.501 88.3542 163.398 89.0625 162.644C89.7708 161.871 90.7704 161.485 92.0611 161.485H93.8083V164.354H91.8958C90.8727 164.354 90.3611 164.86 90.3611 165.871C90.3611 166.883 90.8727 167.388 91.8958 167.388H101.128C102.135 167.388 102.639 166.883 102.639 165.871C102.639 164.86 102.135 164.354 101.128 164.354H98.6014V161.485H100.939C102.23 161.485 103.229 161.871 103.937 162.644C104.646 163.398 105 164.501 105 165.954ZM90.5972 157.298V160.47H88.2361V151.091H90.5972V154.263H104.764V157.298H90.5972ZM105 145.209C105 146.68 104.646 147.802 103.937 148.574C103.213 149.346 102.182 149.733 100.844 149.733H88.2361V146.698H101.033C101.6 146.698 102.009 146.569 102.261 146.312C102.513 146.036 102.639 145.65 102.639 145.153C102.639 144.657 102.513 144.28 102.261 144.023C102.009 143.747 101.6 143.609 101.033 143.609H88.2361V140.685H100.844C102.182 140.685 103.213 141.071 103.937 141.843C104.646 142.616 105 143.737 105 145.209ZM105 134.579C105 136.05 104.646 137.162 103.937 137.917C103.213 138.671 102.182 139.048 100.844 139.048H99.9V136.179H101.033C102.104 136.179 102.639 135.655 102.639 134.607C102.639 134.092 102.513 133.705 102.261 133.448C101.994 133.172 101.569 133.034 100.986 133.034C100.294 133.034 99.6875 133.218 99.1681 133.586C98.6329 133.954 97.9954 134.634 97.2556 135.627C96.3111 136.878 95.4611 137.751 94.7056 138.248C93.9342 138.744 93.0685 138.993 92.1083 138.993C90.8019 138.993 89.7944 138.606 89.0861 137.834C88.362 137.062 88 135.94 88 134.469C88 133.016 88.362 131.921 89.0861 131.186C89.7944 130.432 90.8176 130.055 92.1556 130.055H92.8403V132.924H91.9903C91.4236 132.924 91.0144 133.052 90.7625 133.31C90.4949 133.567 90.3611 133.945 90.3611 134.441C90.3611 135.452 90.8884 135.958 91.9431 135.958C92.5412 135.958 93.1 135.774 93.6194 135.407C94.1389 135.02 94.7685 134.331 95.5083 133.338C96.4528 132.069 97.3106 131.195 98.0819 130.717C98.8533 130.239 99.7583 130 100.797 130C102.151 130 103.19 130.395 103.914 131.186C104.638 131.959 105 133.089 105 134.579Z" fill="black"/>
<path fill-rule="evenodd" clip-rule="evenodd" d="M101.086 26.288C93.912 26.288 88.0962 32.1039 88.0962 39.2781V103.803C88.0962 103.883 88.0317 103.947 87.9521 103.947C87.8957 103.947 87.8469 103.915 87.8232 103.867H73.9844C69.4866 103.867 65.8404 100.221 65.8404 95.7234V70.7507H66.1284V95.7234C66.1284 100.062 69.6456 103.579 73.9844 103.579H87.8081V39.2781C87.8081 31.9448 93.7529 26 101.086 26C108.419 26 114.364 31.9448 114.364 39.2781V114.526C114.364 115.719 115.331 116.686 116.525 116.686H127.184C128.377 116.686 129.344 115.719 129.344 114.526V83.4206C129.344 76.6119 134.863 71.0924 141.672 71.0924C148.481 71.0924 154 76.6119 154 83.4206V114.806C154 129.839 141.814 142.025 126.782 142.025H115.22C114.748 142.025 114.364 142.408 114.364 142.881V202H114.076V142.881C114.076 142.249 114.588 141.737 115.22 141.737H126.782C141.655 141.737 153.712 129.68 153.712 114.806V83.4206C153.712 76.771 148.322 71.3804 141.672 71.3804C135.022 71.3804 129.632 76.771 129.632 83.4206V114.526C129.632 115.878 128.536 116.974 127.184 116.974H116.525C115.172 116.974 114.076 115.878 114.076 114.526V39.2781C114.076 32.1039 108.26 26.288 101.086 26.288ZM60.4863 31.7824C60.5659 31.7824 60.6303 31.8469 60.6303 31.9264V44.2588H60.3423V31.9264C60.3423 31.8469 60.4068 31.7824 60.4863 31.7824ZM71.6628 31.7824C71.7423 31.7824 71.8068 31.8469 71.8068 31.9264V44.2588H71.5188V31.9264C71.5188 31.8469 71.5832 31.7824 71.6628 31.7824ZM74.6638 44.548H57.3042C56.1907 44.548 55.288 45.4507 55.288 46.5642V53.7522C55.288 59.6594 60.0768 64.4482 65.984 64.4482C71.8913 64.4482 76.68 59.6594 76.68 53.7522V46.5642C76.68 45.4507 75.7773 44.548 74.6638 44.548ZM57.3042 44.26C56.0316 44.26 55 45.2916 55 46.5642V53.7522C55 59.8185 59.9177 64.7362 65.984 64.7362C72.0503 64.7362 76.968 59.8185 76.968 53.7522V46.5642C76.968 45.2916 75.9364 44.26 74.6638 44.26H57.3042ZM61.6528 68.606V64.5049H61.3648V68.606C61.3648 69.2378 61.877 69.75 62.5088 69.75H69.2553C69.8871 69.75 70.3993 69.2378 70.3993 68.606V64.5049H70.1113V68.606C70.1113 69.0788 69.7281 69.462 69.2553 69.462H62.5088C62.036 69.462 61.6528 69.0788 61.6528 68.606Z" fill="black"/>
<path d="M87.8232 103.867L89.1115 103.224L88.7136 102.427H87.8232V103.867ZM65.8404 70.7507V69.3105H64.4002V70.7507H65.8404ZM66.1284 70.7507H67.5685V69.3105H66.1284V70.7507ZM87.8081 103.579V105.019H89.2483V103.579H87.8081ZM114.364 202V203.441H115.804V202H114.364ZM114.076 202H112.636V203.441H114.076V202ZM60.6303 44.2588V45.6989H62.0705V44.2588H60.6303ZM60.3423 44.2588H58.9022V45.6989H60.3423V44.2588ZM71.8068 44.2588V45.6989H73.2469V44.2588H71.8068ZM71.5188 44.2588H70.0786V45.6989H71.5188V44.2588ZM61.6528 64.5049H63.0929V63.0648H61.6528V64.5049ZM61.3648 64.5049V63.0648H59.9246V64.5049H61.3648ZM70.3993 64.5049H71.8395V63.0648H70.3993V64.5049ZM70.1113 64.5049V63.0648H68.6712V64.5049H70.1113ZM89.5363 39.2781C89.5363 32.8992 94.7074 27.7282 101.086 27.7282V24.8479C93.1166 24.8479 86.656 31.3085 86.656 39.2781H89.5363ZM89.5363 103.803V39.2781H86.656V103.803H89.5363ZM87.9521 105.387C88.8271 105.387 89.5363 104.678 89.5363 103.803H86.656C86.656 103.087 87.2363 102.507 87.9521 102.507V105.387ZM86.535 104.511C86.793 105.027 87.3292 105.387 87.9521 105.387V102.507C88.4622 102.507 88.9007 102.802 89.1115 103.224L86.535 104.511ZM87.8232 102.427H73.9844V105.308H87.8232V102.427ZM73.9844 102.427C70.2819 102.427 67.2805 99.4258 67.2805 95.7234H64.4002C64.4002 101.017 68.6912 105.308 73.9844 105.308V102.427ZM67.2805 95.7234V70.7507H64.4002V95.7234H67.2805ZM65.8404 72.1908H66.1284V69.3105H65.8404V72.1908ZM64.6883 70.7507V95.7234H67.5685V70.7507H64.6883ZM64.6883 95.7234C64.6883 100.857 68.8503 105.019 73.9844 105.019V102.139C70.441 102.139 67.5685 99.2667 67.5685 95.7234H64.6883ZM73.9844 105.019H87.8081V102.139H73.9844V105.019ZM86.368 39.2781V103.579H89.2483V39.2781H86.368ZM101.086 24.5599C92.9576 24.5599 86.368 31.1494 86.368 39.2781H89.2483C89.2483 32.7401 94.5483 27.4401 101.086 27.4401V24.5599ZM115.804 39.2781C115.804 31.1494 109.215 24.5599 101.086 24.5599V27.4401C107.624 27.4401 112.924 32.7402 112.924 39.2781H115.804ZM115.804 114.526V39.2781H112.924V114.526H115.804ZM116.525 115.246C116.127 115.246 115.804 114.923 115.804 114.526H112.924C112.924 116.514 114.536 118.126 116.525 118.126V115.246ZM127.184 115.246H116.525V118.126H127.184V115.246ZM127.904 114.526C127.904 114.923 127.581 115.246 127.184 115.246V118.126C129.172 118.126 130.784 116.514 130.784 114.526H127.904ZM127.904 83.4206V114.526H130.784V83.4206H127.904ZM141.672 69.6522C134.068 69.6522 127.904 75.8165 127.904 83.4206H130.784C130.784 77.4073 135.659 72.5325 141.672 72.5325V69.6522ZM155.44 83.4206C155.44 75.8165 149.276 69.6522 141.672 69.6522V72.5325C147.685 72.5325 152.56 77.4073 152.56 83.4206H155.44ZM155.44 114.806V83.4206H152.56V114.806H155.44ZM126.782 143.465C142.609 143.465 155.44 130.634 155.44 114.806H152.56C152.56 129.044 141.019 140.585 126.782 140.585V143.465ZM115.22 143.465H126.782V140.585H115.22V143.465ZM115.804 142.881C115.804 143.204 115.543 143.465 115.22 143.465V140.585C113.952 140.585 112.924 141.613 112.924 142.881H115.804ZM115.804 202V142.881H112.924V202H115.804ZM114.076 203.441H114.364V200.56H114.076V203.441ZM112.636 142.881V202H115.516V142.881H112.636ZM115.22 140.297C113.793 140.297 112.636 141.454 112.636 142.881H115.516C115.516 143.045 115.384 143.177 115.22 143.177V140.297ZM126.782 140.297H115.22V143.177H126.782V140.297ZM152.272 114.806C152.272 128.884 140.86 140.297 126.782 140.297V143.177C142.45 143.177 155.152 130.475 155.152 114.806H152.272ZM152.272 83.4206V114.806H155.152V83.4206H152.272ZM141.672 72.8205C147.526 72.8205 152.272 77.5663 152.272 83.4206H155.152C155.152 75.9756 149.117 69.9403 141.672 69.9403V72.8205ZM131.072 83.4206C131.072 77.5663 135.818 72.8205 141.672 72.8205V69.9403C134.227 69.9403 128.192 75.9756 128.192 83.4206H131.072ZM131.072 114.526V83.4206H128.192V114.526H131.072ZM127.184 118.414C129.331 118.414 131.072 116.673 131.072 114.526H128.192C128.192 115.082 127.74 115.534 127.184 115.534V118.414ZM116.525 118.414H127.184V115.534H116.525V118.414ZM112.636 114.526C112.636 116.673 114.377 118.414 116.525 118.414V115.534C115.968 115.534 115.516 115.082 115.516 114.526H112.636ZM112.636 39.2781V114.526H115.516V39.2781H112.636ZM101.086 27.7282C107.465 27.7282 112.636 32.8992 112.636 39.2781H115.516C115.516 31.3085 109.056 24.8479 101.086 24.8479V27.7282ZM62.0705 31.9264C62.0705 31.0515 61.3612 30.3423 60.4863 30.3423V33.2226C59.7705 33.2226 59.1902 32.6423 59.1902 31.9264H62.0705ZM62.0705 44.2588V31.9264H59.1902V44.2588H62.0705ZM60.3423 45.6989H60.6303V42.8187H60.3423V45.6989ZM58.9022 31.9264V44.2588H61.7825V31.9264H58.9022ZM60.4863 30.3423C59.6114 30.3423 58.9022 31.0515 58.9022 31.9264H61.7825C61.7825 32.6423 61.2022 33.2226 60.4863 33.2226V30.3423ZM73.2469 31.9264C73.2469 31.0515 72.5377 30.3423 71.6628 30.3423V33.2226C70.947 33.2226 70.3667 32.6423 70.3667 31.9264H73.2469ZM73.2469 44.2588V31.9264H70.3667V44.2588H73.2469ZM71.5188 45.6989H71.8068V42.8187H71.5188V45.6989ZM70.0786 31.9264V44.2588H72.9589V31.9264H70.0786ZM71.6628 30.3423C70.7879 30.3423 70.0786 31.0515 70.0786 31.9264H72.9589C72.9589 32.6423 72.3786 33.2226 71.6628 33.2226V30.3423ZM57.3042 45.9881H74.6638V43.1079H57.3042V45.9881ZM56.7282 46.5642C56.7282 46.2461 56.9861 45.9881 57.3042 45.9881V43.1079C55.3953 43.1079 53.8479 44.6553 53.8479 46.5642H56.7282ZM56.7282 53.7522V46.5642H53.8479V53.7522H56.7282ZM65.984 63.0081C60.8722 63.0081 56.7282 58.8641 56.7282 53.7522H53.8479C53.8479 60.4548 59.2814 65.8883 65.984 65.8883V63.0081ZM75.2399 53.7522C75.2399 58.8641 71.0959 63.0081 65.984 63.0081V65.8883C72.6866 65.8883 78.1202 60.4548 78.1202 53.7522H75.2399ZM75.2399 46.5642V53.7522H78.1202V46.5642H75.2399ZM74.6638 45.9881C74.982 45.9881 75.2399 46.2461 75.2399 46.5642H78.1202C78.1202 44.6553 76.5727 43.1079 74.6638 43.1079V45.9881ZM56.4401 46.5642C56.4401 46.087 56.827 45.7001 57.3042 45.7001V42.8198C55.2363 42.8198 53.5599 44.4962 53.5599 46.5642H56.4401ZM56.4401 53.7522V46.5642H53.5599V53.7522H56.4401ZM65.984 63.2961C60.7131 63.2961 56.4401 59.0231 56.4401 53.7522H53.5599C53.5599 60.6139 59.1223 66.1764 65.984 66.1764V63.2961ZM75.5279 53.7522C75.5279 59.0231 71.255 63.2961 65.984 63.2961V66.1764C72.8457 66.1764 78.4082 60.6139 78.4082 53.7522H75.5279ZM75.5279 46.5642V53.7522H78.4082V46.5642H75.5279ZM74.6638 45.7001C75.141 45.7001 75.5279 46.087 75.5279 46.5642H78.4082C78.4082 44.4962 76.7318 42.8198 74.6638 42.8198V45.7001ZM57.3042 45.7001H74.6638V42.8198H57.3042V45.7001ZM60.2127 64.5049V68.606H63.0929V64.5049H60.2127ZM61.3648 65.9451H61.6528V63.0648H61.3648V65.9451ZM62.8049 68.606V64.5049H59.9246V68.606H62.8049ZM62.5088 68.3099C62.6723 68.3099 62.8049 68.4425 62.8049 68.606H59.9246C59.9246 70.0332 61.0816 71.1902 62.5088 71.1902V68.3099ZM69.2553 68.3099H62.5088V71.1902H69.2553V68.3099ZM68.9592 68.606C68.9592 68.4425 69.0918 68.3099 69.2553 68.3099V71.1902C70.6825 71.1902 71.8395 70.0332 71.8395 68.606H68.9592ZM68.9592 64.5049V68.606H71.8395V64.5049H68.9592ZM70.1113 65.9451H70.3993V63.0648H70.1113V65.9451ZM71.5514 68.606V64.5049H68.6712V68.606H71.5514ZM69.2553 70.9021C70.5234 70.9021 71.5514 69.8741 71.5514 68.606H68.6712C68.6712 68.2834 68.9327 68.0219 69.2553 68.0219V70.9021ZM62.5088 70.9021H69.2553V68.0219H62.5088V70.9021ZM60.2127 68.606C60.2127 69.8741 61.2407 70.9021 62.5088 70.9021V68.0219C62.8314 68.0219 63.0929 68.2834 63.0929 68.606H60.2127Z" fill="black"/>
<path d="M202 102C202 46.7715 157.228 2 102 2H93M2 102C2 157.228 46.7715 202 102 202H114.5" stroke="black" stroke-width="3" stroke-linecap="round"/>
</svg>
